<svg width="366" height="278" viewBox="0 0 366 278" fill="none" xmlns="http://www.w3.org/2000/svg">
<path opacity="0.3" d="M182.977 277.991C284.033 277.991 365.954 273.208 365.954 267.308C365.954 261.408 284.033 256.625 182.977 256.625C81.9217 256.625 0 261.408 0 267.308C0 273.208 81.9217 277.991 182.977 277.991Z" fill="#556EE6"/>
<path d="M319.807 238.109H155.657V186.941H300.357L313.861 197.907C315.72 199.418 317.218 201.324 318.247 203.487C319.275 205.65 319.808 208.016 319.807 210.411V238.109Z" fill="#75788B"/>
<path opacity="0.5" d="M319.807 238.109H155.657V186.941H300.357L313.861 197.907C315.72 199.418 317.218 201.324 318.247 203.487C319.275 205.65 319.808 208.016 319.807 210.411V238.109Z" fill="#75788B"/>
<path d="M154.713 233.494C154.713 214.818 163.206 199.681 173.587 199.681H153.561C143.115 199.681 134.687 214.78 134.687 233.494C134.687 252.208 143.181 267.308 153.561 267.308H173.644C163.178 267.308 154.713 252.171 154.713 233.494Z" fill="#292B33"/>
<path d="M173.625 267.308C184.07 267.308 192.537 252.169 192.537 233.494C192.537 214.82 184.07 199.681 173.625 199.681C163.18 199.681 154.713 214.82 154.713 233.494C154.713 252.169 163.18 267.308 173.625 267.308Z" fill="#292B33"/>
<path d="M175.144 259.862C182.55 259.862 188.554 248.057 188.554 233.494C188.554 218.932 182.55 207.127 175.144 207.127C167.738 207.127 161.734 218.932 161.734 233.494C161.734 248.057 167.738 259.862 175.144 259.862Z" fill="white"/>
<path d="M45.7041 233.494C45.7041 214.818 54.1976 199.681 64.5785 199.681H44.5528C34.1059 199.681 25.6785 214.78 25.6785 233.494C25.6785 252.208 34.1719 267.308 44.5528 267.308H64.6162C54.1693 267.308 45.7041 252.171 45.7041 233.494Z" fill="#292B33"/>
<path d="M64.6162 267.308C75.061 267.308 83.5283 252.169 83.5283 233.494C83.5283 214.82 75.061 199.681 64.6162 199.681C54.1713 199.681 45.7041 214.82 45.7041 233.494C45.7041 252.169 54.1713 267.308 64.6162 267.308Z" fill="#292B33"/>
<path d="M284.314 233.494C284.314 214.818 292.807 199.681 303.188 199.681H283.162C272.715 199.681 264.288 214.78 264.288 233.494C264.288 252.208 272.781 267.308 283.162 267.308H303.226C292.779 267.308 284.314 252.171 284.314 233.494Z" fill="#292B33"/>
<path d="M303.226 267.308C313.67 267.308 322.138 252.169 322.138 233.494C322.138 214.82 313.67 199.681 303.226 199.681C292.781 199.681 284.313 214.82 284.313 233.494C284.313 252.169 292.781 267.308 303.226 267.308Z" fill="#292B33"/>
<path d="M304.745 259.862C312.151 259.862 318.155 248.057 318.155 233.494C318.155 218.932 312.151 207.127 304.745 207.127C297.339 207.127 291.335 218.932 291.335 233.494C291.335 248.057 297.339 259.862 304.745 259.862Z" fill="white"/>
<path d="M132.366 242.931L34.7382 242.403H32.5299C29.0759 242.403 25.7634 241.031 23.321 238.589C20.8787 236.146 19.5066 232.834 19.5066 229.38V209.373H157.119L146.163 233.183C145.15 236.033 143.28 238.5 140.81 240.245C138.34 241.99 135.39 242.929 132.366 242.931Z" fill="#75788B"/>
<path d="M311.757 172.219C307.803 163.489 304.16 149.305 306.67 125.892C300.1 125.3 293.566 124.354 287.097 123.061C279.406 121.532 273.942 119.946 272.13 119.446C262.306 116.719 237.401 111.896 220.226 115.511C192.792 121.173 176.985 149.938 172.096 159.705L175.088 196.774C179.278 196.774 192.622 195.519 194.575 232.192C194.708 234.77 195.824 237.199 197.694 238.979C199.564 240.759 202.044 241.755 204.626 241.761H276.783C279.219 241.776 281.578 240.906 283.421 239.312C285.264 237.719 286.467 235.511 286.805 233.098C287.815 225.954 297.29 198.067 305.5 196.765C308.454 196.293 312.936 199.039 319.807 212.072C320.338 203.293 319.42 194.487 317.089 186.007C315.721 181.262 313.937 176.649 311.757 172.219Z" fill="#556EE6"/>
<path d="M144.747 115.53C107.206 115.53 64.6918 159.724 64.6918 159.724H172.153C172.153 159.724 199.643 116.634 220.282 115.53H144.747Z" fill="#556EE6"/>
<path opacity="0.4" d="M140.434 115.719C114.434 125.019 90.8641 140.06 71.4771 159.724H172.153C177.441 151.641 183.301 143.945 189.687 136.697C198.973 126.156 204.145 122.542 208.354 120.22C211.905 118.239 215.665 116.656 219.565 115.501L140.434 115.719Z" fill="white"/>
<path d="M172.153 159.724L132.451 191.055L25.6407 190.716C25.6407 190.716 19.5066 199.624 19.5066 209.373H157.119C159.375 203.399 167.283 196.793 175.144 196.793C175.144 185.676 172.153 159.724 172.153 159.724Z" fill="#556EE6"/>
<path opacity="0.2" d="M146.172 181.816C146.06 181.818 145.952 181.778 145.867 181.705C145.781 181.632 145.726 181.531 145.71 181.42C145.693 181.297 145.725 181.171 145.799 181.071C145.873 180.971 145.983 180.903 146.106 180.882C155.636 179.342 164.553 175.193 171.87 168.897C173.315 167.679 174.255 165.966 174.508 164.093C174.761 162.22 174.308 160.319 173.238 158.761C173.185 158.659 173.171 158.541 173.199 158.429C173.227 158.317 173.295 158.219 173.39 158.154C173.486 158.088 173.602 158.061 173.716 158.075C173.831 158.09 173.936 158.146 174.012 158.233C175.216 159.982 175.726 162.116 175.441 164.221C175.157 166.325 174.099 168.248 172.474 169.614C165.033 176.019 155.966 180.242 146.276 181.816H146.172Z" fill="black"/>
<path d="M172.153 159.734L132.46 191.055L44.2981 193.245L26.9337 193.679L23.8572 193.755L24.565 192.811C27.7609 188.674 31.2289 184.756 34.9458 181.08C35.7669 180.259 36.6257 179.438 37.5128 178.617C45.6401 171.101 54.7711 164.749 64.6446 159.743L172.153 159.734Z" fill="#556EE6"/>
<path d="M108.735 190.716H38.2677V192.764H108.735V190.716Z" fill="#292B33"/>
<path d="M172.162 157.006H101.695V159.054H172.162V157.006Z" fill="#292B33"/>
<path d="M143.964 155.977H73.4966V158.025H143.964V155.977Z" fill="#292B33"/>
<path d="M81.471 194.038H69.75V195.274H81.471V194.038Z" fill="#292B33"/>
<path d="M83.8208 188.177H72.0999V189.413H83.8208V188.177Z" fill="#292B33"/>
<path d="M107.121 191.716C112.264 185.61 120.475 182.279 120.975 182.052C126.706 179.782 132.654 178.103 138.726 177.041C138.726 177.041 151.315 174.144 152.023 176.192C152.306 176.985 150.325 177.9 149.768 180.24C149.239 182.43 150.24 184.61 151.363 186.28C150.004 187.415 148.583 188.474 147.106 189.451C133.677 198.407 120.56 197.718 112.331 197.284C109.716 197.142 106.404 196.793 105.819 195.076C105.375 193.896 106.432 192.518 107.121 191.716Z" fill="white"/>
<path d="M44.3547 195.849C43.3543 197.359 40.0608 196.869 37.4938 196.34C33.9268 195.694 30.408 194.804 26.962 193.679C25.9333 193.235 25.0745 192.82 24.5083 192.518C25.5999 190.494 26.91 188.595 28.4153 186.856C30.3343 184.632 32.5584 182.691 35.0213 181.09C37.4844 183.26 41.5518 187.309 43.9017 192.244C44.0338 192.528 44.1942 192.867 44.3264 193.188C44.5354 193.6 44.6467 194.054 44.6517 194.515C44.6566 194.977 44.5549 195.434 44.3547 195.849Z" fill="white"/>
<path opacity="0.5" d="M194.104 160.989H293.496C294.61 156.025 295.463 151.008 296.053 145.955C296.646 140.811 296.961 135.638 296.997 130.459C293.628 129.629 288.806 128.506 282.973 127.336C261.504 123.032 250.812 123.089 238.468 122.24C232.138 121.805 225.788 122.746 219.857 124.999C213.925 127.252 208.552 130.763 204.107 135.291C198.763 140.655 193.935 146.51 189.687 152.778C189.154 153.575 188.848 154.502 188.801 155.459C188.755 156.416 188.971 157.368 189.425 158.212C189.879 159.057 190.554 159.761 191.379 160.25C192.203 160.739 193.145 160.995 194.104 160.989Z" fill="white"/>
<path d="M129.855 220.443C129.855 223.538 126.694 226.048 122.777 226.048C118.861 226.048 115.7 223.538 115.7 220.443C115.7 217.347 118.87 214.78 122.777 214.78C126.684 214.78 129.855 217.338 129.855 220.443Z" fill="white"/>
<path d="M25.216 220.443C25.216 223.538 24.3195 226.048 23.2154 226.048C22.1112 226.048 21.2241 223.538 21.2241 220.443C21.2241 217.347 22.1678 214.78 23.2154 214.78C24.2629 214.78 25.216 217.338 25.216 220.443Z" fill="white"/>
<path d="M191.046 160.092V156.912C191.045 155.999 191.247 155.098 191.639 154.273C192.03 153.449 192.601 152.722 193.309 152.146C194.017 151.57 194.844 151.16 195.731 150.944C196.618 150.729 197.542 150.714 198.435 150.9L210.534 153.42C211.915 153.708 213.155 154.463 214.045 155.558C214.935 156.653 215.422 158.02 215.422 159.431V160.092C215.422 160.898 215.263 161.697 214.954 162.442C214.645 163.187 214.193 163.863 213.622 164.433C213.051 165.003 212.374 165.454 211.629 165.762C210.884 166.07 210.085 166.227 209.278 166.226H197.237C196.426 166.234 195.623 166.081 194.872 165.776C194.121 165.471 193.438 165.02 192.863 164.45C192.287 163.879 191.83 163.201 191.518 162.453C191.206 161.705 191.046 160.902 191.046 160.092Z" fill="#292B33"/>
<path d="M254.7 123.561C254.7 123.561 253.086 123.391 250.274 123.146C262.712 148.626 259.541 160.989 259.541 160.989H269.035C269.129 145.465 254.7 123.561 254.7 123.561Z" fill="#292B33"/>
<path opacity="0.2" d="M260.673 235.07C260.548 235.07 260.428 235.021 260.34 234.932C260.251 234.844 260.201 234.724 260.201 234.599C260.201 225.048 265.062 185.667 266.345 179.759C267.581 174.031 267.581 167.642 266.345 163.48C266.31 163.361 266.322 163.233 266.381 163.124C266.439 163.014 266.538 162.932 266.656 162.895C266.777 162.859 266.906 162.872 267.017 162.93C267.128 162.988 267.212 163.087 267.251 163.206C268.525 167.51 268.525 174.087 267.251 179.957C265.977 185.827 261.136 225.086 261.136 234.599C261.133 234.721 261.084 234.839 260.998 234.926C260.912 235.014 260.796 235.066 260.673 235.07Z" fill="black"/>
<path opacity="0.2" d="M259.418 180.25H247.905C247.687 180.255 247.471 180.211 247.273 180.12C247.075 180.029 246.901 179.895 246.762 179.726C246.624 179.558 246.526 179.361 246.475 179.149C246.425 178.937 246.423 178.716 246.47 178.504L246.706 177.164C246.805 176.685 247.061 176.253 247.434 175.936C247.807 175.62 248.275 175.437 248.764 175.418H260.268C260.486 175.411 260.703 175.454 260.902 175.544C261.101 175.634 261.276 175.769 261.415 175.938C261.553 176.106 261.651 176.305 261.701 176.517C261.751 176.73 261.751 176.951 261.702 177.164L261.466 178.504C261.369 178.982 261.115 179.414 260.744 179.731C260.372 180.047 259.906 180.23 259.418 180.25Z" fill="black"/>
<path d="M348.316 0H243.328C237.073 0 232.003 5.0702 232.003 11.3246V100.676C232.003 106.93 237.073 112 243.328 112H348.316C354.571 112 359.641 106.93 359.641 100.676V11.3246C359.641 5.0702 354.571 0 348.316 0Z" fill="#EBEFFC"/>
<path d="M228.247 265.873L233.947 265.788L235.589 252.576L229.889 252.661L228.247 265.873Z" fill="#C18885"/>
<path d="M255.455 265.458L260.985 263.759L257.55 251.246L252.02 252.935L255.455 265.458Z" fill="#C18885"/>
<path d="M260.815 262.108L255.153 264.373C255.058 264.85 254.992 265.332 254.955 265.817C254.857 267.531 255.127 269.246 255.747 270.847C255.782 270.968 255.843 271.08 255.926 271.174C256.009 271.268 256.113 271.343 256.229 271.391C256.345 271.44 256.47 271.463 256.596 271.457C256.722 271.45 256.845 271.416 256.955 271.356C258.928 270.299 260.315 269.469 262.816 268.148C264.354 267.355 269.073 265.118 271.196 264.024C273.319 262.929 272.517 260.683 271.545 260.938C267.213 262.098 263.665 262.438 261.834 261.966C261.664 261.92 261.485 261.909 261.31 261.934C261.135 261.958 260.967 262.017 260.815 262.108Z" fill="#292B33"/>
<path d="M234.042 265.128L228.379 264.335C228.228 264.552 228.096 264.769 227.955 265.005C226.965 266.738 226.383 268.675 226.256 270.667C226.231 270.79 226.233 270.916 226.263 271.037C226.293 271.159 226.35 271.272 226.43 271.368C226.51 271.464 226.61 271.541 226.724 271.593C226.838 271.645 226.962 271.67 227.087 271.668C229.333 271.592 232.57 271.403 235.391 271.366C238.685 271.309 239.647 271.451 243.507 271.366C245.848 271.366 246.461 268.959 245.48 268.761C241.006 267.817 239.261 267.817 235.372 265.496C234.971 265.254 234.511 265.127 234.042 265.128Z" fill="#292B33"/>
<path d="M242.714 92.5503C244.007 95.1455 245.461 97.8917 246.933 100.496C248.405 103.101 249.943 105.715 251.595 108.169C252.019 108.763 252.416 109.396 252.85 109.981L253.907 111.425C254.041 111.581 254.167 111.745 254.284 111.915C254.284 111.981 254.35 112.066 254.624 112.085C255.626 111.904 256.558 111.446 257.314 110.764C257.833 110.368 258.361 109.915 258.88 109.443C259.399 108.971 259.918 108.405 260.362 107.952L264.09 110.047C263.775 110.883 263.403 111.697 262.976 112.482C262.555 113.278 262.069 114.039 261.523 114.756C260.942 115.546 260.278 116.271 259.541 116.917C258.666 117.696 257.65 118.301 256.549 118.701C255.169 119.199 253.673 119.281 252.246 118.937C250.911 118.603 249.676 117.956 248.641 117.049C248.386 116.842 248.207 116.643 247.99 116.436L247.688 116.124L247.471 115.879L246.64 114.935C246.084 114.303 245.574 113.652 245.045 113.048C243.03 110.456 241.17 107.746 239.477 104.932C238.647 103.535 237.826 102.101 237.071 100.685C236.316 99.2696 235.58 97.854 234.882 96.2591L242.714 92.5503Z" fill="#C18885"/>
<path d="M232.494 92.5881C231.399 95.5702 233.353 98.2504 236.561 104.281C238.27 107.461 240.704 112.265 243.3 118.436L258.607 103.337C254.435 103.186 252.001 101.865 250.528 100.638C248.396 98.8544 248.499 97.4482 245.489 93.6262C242.809 90.2194 241.28 88.2847 238.949 88.1149C237.547 88.1208 236.18 88.5514 235.027 89.3499C233.875 90.1485 232.992 91.2775 232.494 92.5881Z" fill="#75788B"/>
<path opacity="0.2" d="M241.422 102.865C243.668 103.809 246.971 109.226 248.688 113.246L243.3 118.465C242.937 116.525 242.378 114.628 241.629 112.802C240.513 110.09 238.985 107.566 237.099 105.319C238.562 103.724 240.242 102.393 241.422 102.865Z" fill="black"/>
<path d="M259.72 108.98L263.665 102.601L267.1 108.093C266.277 109.566 264.929 110.675 263.325 111.198L259.72 108.98Z" fill="#B55B52"/>
<path d="M269.167 102.667V104.639C269.164 105.255 268.951 105.851 268.563 106.329L267.072 108.093L263.637 102.601L267.195 101.298C267.415 101.214 267.654 101.185 267.889 101.213C268.123 101.242 268.348 101.327 268.542 101.462C268.736 101.597 268.895 101.777 269.004 101.987C269.113 102.197 269.169 102.43 269.167 102.667Z" fill="#C18885"/>
<path d="M265.316 110.821L259.107 110.726L262.542 97.8634L268.752 97.9578L265.316 110.821Z" fill="#556EE6"/>
<path d="M265.949 110.821L259.739 110.726L263.174 97.8634L269.384 97.9578L265.949 110.821Z" fill="#292B33"/>
<path d="M222.972 138.726C228.04 134.215 236.609 135.508 242.941 137.245C245.619 156.585 246.432 176.137 245.366 195.632C244.151 217.644 240.547 239.459 234.617 260.692L229.031 259.881C231.574 239.118 231.231 218.103 228.011 197.435C223.312 168.038 213.733 146.965 222.972 138.726Z" fill="#C18885"/>
<path d="M232.154 138.066C247.188 169.982 251.708 184.308 252.718 191.395C252.812 192.027 253.19 196.803 254.473 203.352C255.2 207.032 256.153 212.364 256.984 219.027L259.192 257.248L253.699 259.135C250.364 249.749 247.73 240.128 245.819 230.352C244.734 224.746 244.158 220.386 242.158 209.835C240.761 202.465 239.496 196.435 238.619 192.377C225.88 177.229 217.587 158.848 214.658 139.274L232.154 138.066Z" fill="#C18885"/>
<path opacity="0.2" d="M230.692 181.345C230.956 182.534 238.373 215.762 240.77 235.136C241.45 231.034 242.079 226.841 242.658 222.557C242.935 220.562 243.193 218.59 243.432 216.64L230.692 181.345Z" fill="black"/>
<path d="M208.41 95.3154C207.269 99.581 209.156 110.915 213.752 125.326L215.96 190.687C220.49 191.046 225.322 191.216 230.427 191.122C242.904 190.901 255.308 189.161 267.364 185.941C247.792 144.417 243.101 126.534 243.3 118.446C243.632 108.174 242.16 97.9244 238.949 88.162C238.949 88.162 236.996 87.7845 234.344 87.5109C233.504 87.4259 232.607 87.3504 231.673 87.3032C231.154 87.3032 230.635 87.2466 230.097 87.2372C225.779 87.3043 221.469 87.6194 217.187 88.1809C216.375 88.2847 215.545 88.4074 214.752 88.5395C213.96 88.6716 213.289 88.7943 212.601 88.9359H212.506C211.478 89.2001 209.024 93.0693 208.41 95.3154Z" fill="#75788B"/>
<path opacity="0.2" d="M213.591 99.5621L210.109 104.045C210.114 104.098 210.114 104.152 210.109 104.205C210.6 107.244 210.977 110.226 211.26 113.086C214.601 108.962 214.11 101.516 213.591 99.5621Z" fill="black"/>
<path d="M218.697 79.3477C219.424 82.4053 219.376 85.8027 217.187 88.228C219.612 90.3042 222.755 92.6824 227.7 92.4842C232.645 92.286 231.532 88.9641 230.097 87.2654C225.869 86.586 225.869 83.8397 225.831 80.8293C225.829 80.5228 225.73 80.2249 225.549 79.9777C225.367 79.7304 225.113 79.5464 224.822 79.4515L220.179 77.9604C219.981 77.8969 219.771 77.8874 219.569 77.9327C219.367 77.9779 219.181 78.0765 219.03 78.218C218.878 78.3595 218.768 78.5389 218.709 78.7375C218.651 78.9362 218.647 79.1468 218.697 79.3477Z" fill="#C18885"/>
<path opacity="0.2" d="M225.841 80.9991L221.169 81.6031C221.278 81.8075 221.398 82.0059 221.528 82.1977C222.873 84.0859 224.853 85.4261 227.105 85.9725C226.797 85.645 226.539 85.2727 226.341 84.8684C226.104 84.2881 225.964 83.6728 225.926 83.047C225.849 82.3673 225.82 81.6829 225.841 80.9991Z" fill="black"/>
<path d="M231.899 68.8913C226.001 75.3652 223.529 81.1596 225.407 83.6888C226.7 85.4347 230.05 85.5762 232.258 84.5287C238.373 81.6976 237.279 69.1556 236.524 65.3807C236.259 64.0501 235.693 62.0494 235.504 62.0777C235.316 62.106 235.627 63.0214 235.202 63.5216C234.778 64.0217 233.315 64.0501 231.899 63.6726V68.8913Z" fill="#292B33"/>
<path d="M217.999 67.9476C216.999 69.8746 216.552 72.0404 216.707 74.2056C216.862 76.3707 217.613 78.4509 218.876 80.2159C219.584 81.1597 221.235 83.5473 223.934 83.7926C226.832 84.0663 229.059 81.7448 229.701 81.0747C234.589 75.9881 234.627 64.7767 229.861 62.3891C226.435 60.6433 220.509 63.3234 217.999 67.9476Z" fill="#C18885"/>
<path d="M217.328 73.4495C217.404 71.8641 218.074 70.0333 218.763 70.0238C219.452 70.0144 219.518 71.5243 220.179 71.6376C220.839 71.7508 221.839 70.6939 223.821 65.2769C230.361 66.315 235.146 66.2961 235.523 65.6922C235.825 65.2198 236.013 64.6833 236.071 64.1256C236.184 61.8512 233.815 60.3507 233.57 60.1809C232.22 59.3315 222.349 52.0083 215.375 57.3497C211.845 60.0299 211.1 64.371 210.902 65.9753C210.543 67.4286 206.495 84.0097 210.42 85.7933C211.33 86.0253 212.275 86.0798 213.204 85.9538C216.215 85.8783 218.716 85.8028 219.575 84.2834C220.329 82.9244 219.65 80.6784 218.697 79.4516C218.348 79.1034 218.053 78.7059 217.819 78.2719C217.508 77.6302 217.498 77.1017 217.395 74.8556C217.328 73.4589 217.328 73.5061 217.328 73.4495Z" fill="#292B33"/>
<path d="M214.847 71.345C215.046 72.7519 215.792 74.0236 216.923 74.884C218.433 76.007 219.376 74.8179 219.518 72.9965C219.65 71.4016 219.518 68.8819 217.715 68.4667C217.32 68.3789 216.908 68.3925 216.519 68.5062C216.13 68.6199 215.776 68.8301 215.49 69.1172C215.204 69.4043 214.995 69.7591 214.882 70.1485C214.77 70.538 214.757 70.9496 214.847 71.345Z" fill="#C18885"/>
<path d="M217.527 97.0991C215.639 100.459 213.752 104.026 212.053 107.546C210.342 110.99 208.876 114.55 207.665 118.201C207.523 118.635 207.419 119.069 207.287 119.512C207.24 119.711 207.155 119.994 207.127 120.116C207.099 120.239 207.061 120.333 207.051 120.456C206.95 121.046 206.95 121.65 207.051 122.24C207.445 123.858 208.081 125.408 208.939 126.836C210.895 130.133 213.177 133.225 215.752 136.065L213.016 139.359C209.366 136.942 206.123 133.96 203.409 130.526C201.893 128.619 200.721 126.464 199.945 124.155C199.498 122.776 199.297 121.329 199.351 119.88C199.351 119.493 199.426 119.088 199.473 118.691C199.521 118.295 199.577 118.106 199.634 117.814C199.747 117.257 199.851 116.691 199.974 116.143C201.032 111.952 202.466 107.865 204.258 103.932C205.982 100.069 207.936 96.3122 210.109 92.6825L217.527 97.0991Z" fill="#C18885"/>
<path d="M211.194 89.4549C206.24 91.7199 208.108 99.0997 202.701 105.498C200.318 108.198 197.25 110.203 193.821 111.302L211.619 116.172C212.639 112.823 213.966 109.575 215.583 106.47C217.329 103.129 218.414 101.893 219.14 98.9204C219.669 96.7687 220.669 92.673 218.47 90.427C216.8 88.8226 213.601 88.3508 211.194 89.4549Z" fill="#999CAA"/>
<path d="M213.327 135.093L219.103 136.612L216.809 142.048C216.809 142.048 211.628 140.944 211.657 138.122L213.327 135.093Z" fill="#C18885"/>
<path d="M221.32 140.302L219.612 144.587L216.809 142.048L219.103 136.612L221.32 140.302Z" fill="#C18885"/>
<path opacity="0.1" d="M249.028 56.6418C255.017 56.6418 259.871 51.7871 259.871 45.7985C259.871 39.8099 255.017 34.9552 249.028 34.9552C243.039 34.9552 238.185 39.8099 238.185 45.7985C238.185 51.7871 243.039 56.6418 249.028 56.6418Z" fill="#556EE6"/>
<path d="M249.028 52.565C252.765 52.565 255.794 49.5356 255.794 45.7986C255.794 42.0615 252.765 39.0321 249.028 39.0321C245.291 39.0321 242.261 42.0615 242.261 45.7986C242.261 49.5356 245.291 52.565 249.028 52.565Z" fill="#556EE6"/>
<path d="M246.206 43.5902L271.696 69.0894L285.144 55.6509L307.199 77.6961L324.733 60.1713" stroke="#556EE6" stroke-width="2" stroke-miterlimit="10"/>
<path d="M324.733 8.75769C322.091 8.75645 319.475 9.27571 317.034 10.2858C314.593 11.2959 312.375 12.777 310.506 14.6446C308.638 16.5122 307.156 18.7296 306.145 21.1701C305.133 23.6107 304.613 26.2265 304.613 28.8683C304.613 48.2522 324.733 61.5492 324.733 61.5492C324.733 61.5492 344.853 48.2522 344.853 28.8683C344.853 26.2265 344.332 23.6107 343.321 21.1701C342.31 18.7296 340.828 16.5122 338.959 14.6446C337.091 12.777 334.873 11.2959 332.432 10.2858C329.991 9.27571 327.375 8.75645 324.733 8.75769ZM324.733 38.3526C322.864 38.3526 321.038 37.7979 319.485 36.7589C317.932 35.7198 316.722 34.2431 316.01 32.5159C315.297 30.7888 315.113 28.8889 315.481 27.057C315.849 25.225 316.752 23.5436 318.077 22.2257C319.401 20.9078 321.087 20.0127 322.921 19.6539C324.755 19.2951 326.654 19.4888 328.377 20.2103C330.101 20.9318 331.571 22.1487 332.603 23.7069C333.634 25.265 334.179 27.0942 334.17 28.9627C334.158 31.4574 333.158 33.8456 331.389 35.6053C329.621 37.3649 327.228 38.3527 324.733 38.3526Z" fill="#2ED06E"/>
<path opacity="0.1" d="M285.164 59.8223L275.568 69.4182L289.682 83.5318L299.277 73.9359L285.164 59.8223Z" fill="#556EE6"/>
<path opacity="0.1" d="M304.153 48.8469L292.875 60.1244L306.989 74.238L318.266 62.9605L304.153 48.8469Z" fill="#556EE6"/>
<path opacity="0.1" d="M270.747 45.0076L260.978 54.777L271.455 65.2537L281.224 55.4843L270.747 45.0076Z" fill="#556EE6"/>
<path opacity="0.1" d="M257.366 58.3862L246.089 69.6637L259.068 82.6428L270.345 71.3653L257.366 58.3862Z" fill="#556EE6"/>
<path opacity="0.1" d="M292.157 36.8459L280.88 48.1234L291.357 58.6002L302.634 47.3226L292.157 36.8459Z" fill="#556EE6"/>
<path opacity="0.1" d="M300.552 75.2144L290.956 84.8103L296.595 90.4491L306.191 80.8532L300.552 75.2144Z" fill="#556EE6"/>
<path opacity="0.1" d="M324.906 64.0518L308.898 80.0605L314.536 85.6993L330.545 69.6906L324.906 64.0518Z" fill="#556EE6"/>
<path opacity="0.1" d="M331.881 71.2521L315.872 87.2609L321.511 92.8996L337.52 76.8909L331.881 71.2521Z" fill="#556EE6"/>
</svg>
