<svg xmlns="http://www.w3.org/2000/svg" xmlns:xlink="http://www.w3.org/1999/xlink" width="344.191" height="343.669" viewBox="0 0 344.191 343.669">
  <defs>
    <linearGradient id="linear-gradient" x1="0.342" y1="0.664" x2="1.341" y2="-0.384" gradientUnits="objectBoundingBox">
      <stop offset="0" stop-color="#e5e8ea"/>
      <stop offset="0.686" stop-color="#f0f1f4"/>
      <stop offset="1" stop-color="#f0f2f5"/>
    </linearGradient>
    <linearGradient id="linear-gradient-3" x1="0.646" y1="0.417" x2="1.341" y2="-0.384" xlink:href="#linear-gradient"/>
    <linearGradient id="linear-gradient-4" x1="0.652" y1="0.421" x2="1.341" y2="-0.384" xlink:href="#linear-gradient"/>
    <linearGradient id="linear-gradient-6" x1="-0.199" y1="9.882" x2="-0.201" y2="9.803" gradientUnits="objectBoundingBox">
      <stop offset="0" stop-color="#cbc9c9"/>
      <stop offset="0.686" stop-color="#f0f1f4"/>
      <stop offset="1" stop-color="#f0f2f5"/>
    </linearGradient>
  </defs>
  <g id="image" transform="translate(184.369 -283.084)">
    <g id="Group_5601" data-name="Group 5601">
      <path id="Path_394" data-name="Path 394" d="M108.884,498.5l-12.843-5.65L53.9,474.31,89.211,581.285l67.674-51.655a6.18,6.18,0,0,0-1.26-10.569Z" stroke="rgba(0,0,0,0)" stroke-width="1" fill="url(#linear-gradient)"/>
      <path id="Path_395" data-name="Path 395" d="M-136.332,619.525l-37.615-15.055c-10.341-4.137-12.986-11.352-5.916-16.066l83.935-55.556c7.072-4.713,21.357-5.146,31.7-1.01l37.613,15.056c10.341,4.136,12.986,11.351,5.916,16.065l-83.935,55.556C-111.753,623.229-125.991,623.662-136.332,619.525Z" stroke="rgba(0,0,0,0)" stroke-width="1" fill="url(#linear-gradient)"/>
      <path id="Path_396" data-name="Path 396" d="M-30.9,536.981l-6.638.529-.24,2.933-22.993-18.321-19.769,5.2-.625,10.583a5.432,5.432,0,0,0,1.78,4.713l-73.738,48.437c4.137,3.319,32.083,15.3,36.8,12.362l78.452-49.447a13.179,13.179,0,0,0,5.627-7.408Z" fill="#152936"/>
      <path id="Path_397" data-name="Path 397" d="M-143.018,610.816l-27.226-12.073a5.6,5.6,0,0,1-3.366-4.425,80.547,80.547,0,0,1-.481-11.785l9.908.577,20.011-8.61,32.707,26.316-14.238,8.851C-130.464,612.551-134.7,614.816-143.018,610.816Z" fill="#152936"/>
      <path id="Path_398" data-name="Path 398" d="M94.406,344.3l-149.3-60.9a2.641,2.641,0,0,0-3.175.529h0l-7.552,4.377,6.446,22.127v191.1c0,3.223,1.923,6.734,4.328,7.793L75.506,566.993l13.8,14.238,7.455-5.676-.049-.049c1.252-.481,2.069-1.972,2.069-4.089V352.043C98.734,348.864,96.811,345.353,94.406,344.3Z" fill="#203543"/>
      <path id="Path_399" data-name="Path 399" d="M86.228,581.238l-149.3-66.09c-2.356-1.059-4.329-4.57-4.329-7.793V292.587c0-3.223,1.924-5.052,4.329-3.993L86.281,350.066c2.356,1.059,4.329,4.57,4.329,7.793V577.245C90.557,580.468,88.633,582.248,86.228,581.238Z" fill="#f7f7f7" stroke="rgba(0,0,0,0)" stroke-width="1"/>
      <path id="Path_400" data-name="Path 400" d="M68.608,559.138l-118.456-52.45a9.7,9.7,0,0,1-5.773-8.869V321.241a9.7,9.7,0,0,1,13.382-8.974L76.218,360.873a9.7,9.7,0,0,1,6.017,8.974V550.268A9.7,9.7,0,0,1,68.608,559.138Z" fill="none" stroke="#e02f2b" stroke-miterlimit="10" stroke-width="2"/>
      <path id="Path_401" data-name="Path 401" d="M44.429,330.586l-1.3-.577c-.866-6.687-5.532-13.564-11.112-16.018L-4.875,297.685c-5.58-2.452-10.245.289-11.111,6.206l-1.3-.578c-6.2-2.741-11.255.963-11.255,8.274h0c0,7.264,5.05,15.488,11.255,18.23L44.379,357.09c6.2,2.742,11.255-.962,11.255-8.274h0C55.684,341.505,50.634,333.328,44.429,330.586Z" fill="#152936"/>
      <path id="Path_402" data-name="Path 402" d="M-158.266,546.75a12.009,12.009,0,0,1-2.79-2.26c-2.117-2.6-2.165-8.8,3.847-6.734a34.353,34.353,0,0,1,5.388,2.405c2.79,1.587,4.761,3.462,4.714,5.2C-147.2,547.664-153.12,549.731-158.266,546.75Z" fill="#e02f2b"/>
      <path id="Path_403" data-name="Path 403" d="M-69.521,496.2l33.286,15.2c-10.823-.529-7.5,7.985-30.448,8.657l-21.6,14.478a47.561,47.561,0,0,0-14.91,16.164c-2.021,3.607-4.185,7.359-5.581,9.62-1.683,2.741-7.647,13.42-7.647,13.42s-11.208,9.62-14.863,14.478c-1.2,1.635.24,3.175-.674,5.1-1.924,4.04.963,6.541-2.4,12.939l-39.634-16.5c-.722-3.993.1-13.42,2.02-17.461a31.016,31.016,0,0,1,3.222-5.339c3.657-4.857,13.132-14.67,17.268-18.711,1.059-1.059,4.425-10.1,9.957-20.25a47.68,47.68,0,0,1,16.45-17.557s23.809-13.709,24.05-13.853C-91.647,491.578-80.44,491.049-69.521,496.2Z" fill="#ee4036"/>
      <path id="Path_404" data-name="Path 404" d="M-136.861,523.95l-11.592,23.04,8.369,3.656h-.048l27.273,11.881,11.929-23.906Z" fill="#bf1d1d"/>
      <path id="Path_405" data-name="Path 405" d="M-29.26,528.378l-.24.143a4.737,4.737,0,0,0-.1-3.8h0l-5.1-11.543a6.846,6.846,0,0,0-.481-1.057v-.049h0c-1.539-1.876-7.889-1.876-9.284-1.876-13.756-.144-31.745,14.334-43,22.03a42.48,42.48,0,0,0-11.112,11.015,217.917,217.917,0,0,0-12.314,20.537c-1.155,2.163-17.989,15.68-19.144,17.507-2.356,3.849-3.03,5.821-3.271,9.717,0,0-1.106,15.1-1.106,15.248,3.944-.24,6.3-2.165,7.887-2.983l2.79-1.78c.914-8.995,6.3-17.46,12.458-21.356,5.869-3.512,10.2-1.877,9.717,6.59L-81.4,573.878l20.1-12.362c.914-8.995,6.3-17.46,12.458-21.356,5.869-3.512,10.2-1.877,9.716,6.59l2.309-1.443,1.01-11.689h0l-1.01,11.689,3.464-1.924a6.942,6.942,0,0,0,2.837-3.126,9.143,9.143,0,0,0,.914-3.751Z" fill="#e02f2b"/>
      <path id="Path_406" data-name="Path 406" d="M-100.209,565.943l21.5-13.275,1.877-18.278S-90.06,538-100.883,562.481C-101.7,564.3-101.315,566.614-100.209,565.943Z" fill="#bf1d1d"/>
      <path id="Path_407" data-name="Path 407" d="M-68.752,549.01l12.554-8.225c3.03-1.973,6.2-7.455,8.178-12.169.047-.1.1-.24.143-.338,1.877-4.521,1.155-9.235-1.491-8.754-3.03.529-15.488,8.274-16.161,8.658-.1.049-.144.1-.242.144a8.49,8.49,0,0,0-3.03,5.2l-2.308,12.6C-71.59,548.77-70.483,550.165-68.752,549.01Z" fill="#bf1d1d"/>
      <path id="Path_408" data-name="Path 408" d="M-32.773,525.488v-.1c.144-1.3-.288-2.212-1.057-2.116a3.487,3.487,0,0,0-1.2.481,16.3,16.3,0,0,0-2.982,2.838c-1.059,1.25-1.492,3.318-.867,4.136.242.336.626.336,1.059.1l3.03-1.876a.047.047,0,0,0,.049-.047v0A4.9,4.9,0,0,0-32.773,525.488Z" fill="#bf1d1d"/>
      <g id="Group_5569" data-name="Group 5569">
        <line id="Line_294" data-name="Line 294" x2="40.02" y2="15.825" transform="translate(7.344 375.656)" fill="none" stroke="#203543" stroke-linecap="round" stroke-linejoin="round" stroke-width="3"/>
        <path id="Line_295" data-name="Line 295" d="M0,0,52.063,21.131" transform="translate(7.584 392.636)" fill="none" stroke="#203543" stroke-linecap="round" stroke-width="3"/>
        <path id="Path_409" data-name="Path 409" d="M-23.353,386.926l-12.432-5.951a6.7,6.7,0,0,1-3.8-5.829l-.5-16.031a6.691,6.691,0,0,1,9.568-6.246L-18.08,358.8a6.693,6.693,0,0,1,3.808,5.833l.5,16.054A6.691,6.691,0,0,1-23.353,386.926Z" fill="#ee4036"/>
        <path id="Path_410" data-name="Path 410" d="M-34.5,364.113l4.049,7.947,4.775-5.968" transform="translate(2.344 2.111)" fill="none" stroke="#fff" stroke-linecap="round" stroke-linejoin="round" stroke-width="3"/>
      </g>
      <g id="Group_5570" data-name="Group 5570">
        <line id="Line_296" data-name="Line 296" x2="40.02" y2="15.825" transform="translate(7.344 427.027)" fill="none" stroke="#203543" stroke-linecap="round" stroke-linejoin="round" stroke-width="3"/>
        <line id="Line_297" data-name="Line 297" x2="54.091" y2="22.577" transform="translate(7.584 444.007)" fill="none" stroke="#203543" stroke-linecap="round" stroke-linejoin="round" stroke-width="3"/>
        <path id="Path_411" data-name="Path 411" d="M-23.344,438.32l-12.432-5.929a6.69,6.69,0,0,1-3.808-5.833l-.5-16.054a6.692,6.692,0,0,1,9.578-6.242l12.431,5.952a6.69,6.69,0,0,1,3.8,5.828l.5,16.031A6.691,6.691,0,0,1-23.344,438.32Z" fill="#203543"/>
        <path id="Path_410-2" data-name="Path 410" d="M-34.5,364.113l4.049,7.947,4.775-5.968" transform="translate(2.344 53.111)" fill="none" stroke="#fff" stroke-linecap="round" stroke-linejoin="round" stroke-width="3"/>
      </g>
      <g id="Group_5571" data-name="Group 5571">
        <path id="Path_413" data-name="Path 413" d="M-23.344,489.69l-12.432-5.929a6.69,6.69,0,0,1-3.808-5.833l-.5-16.053a6.691,6.691,0,0,1,9.578-6.242l12.431,5.952a6.69,6.69,0,0,1,3.8,5.828l.5,16.03A6.691,6.691,0,0,1-23.344,489.69Z" fill="#ee4036"/>
        <path id="Path_410-3" data-name="Path 410" d="M-34.5,364.113l4.049,7.947,4.775-5.968" transform="translate(2.344 105.111)" fill="none" stroke="#fff" stroke-linecap="round" stroke-linejoin="round" stroke-width="3"/>
      </g>
      <g id="Group_5602" data-name="Group 5602">
        <path id="Path_415" data-name="Path 415" d="M-135.278,349.777l6.467,2.923a5.064,5.064,0,0,0,7.149-4.615v-2.3a5.065,5.065,0,0,0-2.978-4.615l-6.467-2.923a5.065,5.065,0,0,0-7.15,4.615v2.3A5.063,5.063,0,0,0-135.278,349.777Z" fill="#ee4036"/>
        <path id="Path_416" data-name="Path 416" d="M-108.224,362.9l-6.467-2.923a5.062,5.062,0,0,1-2.979-4.614V333.526a5.065,5.065,0,0,1,7.15-4.615l6.467,2.923a5.065,5.065,0,0,1,2.978,4.615v21.837A5.064,5.064,0,0,1-108.224,362.9Z" fill="#ee4036"/>
        <path id="Path_417" data-name="Path 417" d="M-95.11,323.328v42.186a5.062,5.062,0,0,0,2.979,4.614l6.467,2.923a5.064,5.064,0,0,0,7.149-4.615V326.251a5.065,5.065,0,0,0-2.978-4.615l-6.467-2.923A5.065,5.065,0,0,0-95.11,323.328Z" fill="#ee4036"/>
      </g>
      <g id="Group_5584" data-name="Group 5584">
        <g id="Group_5575" data-name="Group 5575">
          <g id="Group_5574" data-name="Group 5574">
            <ellipse id="Ellipse_139" data-name="Ellipse 139" cx="19.529" cy="11.063" rx="19.529" ry="11.063" transform="translate(-35.225 584.267)" stroke="rgba(0,0,0,0)" stroke-width="1" fill="url(#linear-gradient-3)"/>
            <g id="Group_5573" data-name="Group 5573">
              <g id="Group_5572" data-name="Group 5572">
                <path id="Path_418" data-name="Path 418" d="M-2.71,591.387a34.046,34.046,0,0,1-.481,6.926c-.625,2.453-2.79,4.81-6.4,6.542-7.986,3.8-20.058,3.175-26.985-1.395-3.222-2.117-5-4.282-5-6.975-.1-1.443-.144-5.532-.144-5.532.24-.866,1.3.049,1.924-.77a12.817,12.817,0,0,1,5.435-4.329c7.985-3.8,20.058-3.175,26.984,1.4C-4.49,589.126-2.9,589.078-2.71,591.387Z" fill="#ffb8b8"/>
                <ellipse id="Ellipse_140" data-name="Ellipse 140" cx="19.529" cy="11.063" rx="19.529" ry="11.063" transform="translate(-41.719 580.323)" fill="#e02f2b"/>
                <ellipse id="Ellipse_141" data-name="Ellipse 141" cx="19.529" cy="11.063" rx="19.529" ry="11.063" transform="translate(-41.719 579.746)" fill="#ffd7d7"/>
                <ellipse id="Ellipse_142" data-name="Ellipse 142" cx="13.661" cy="7.744" rx="13.661" ry="7.744" transform="translate(-35.899 582.776)" fill="none" stroke="#e02f2b" stroke-width="1"/>
                <path id="Path_419" data-name="Path 419" d="M-30.945,585.473c5.82-2.741,14.43-2.26,19.24,1.01a6.507,6.507,0,0,1,3.127,4.474c.192-1.876-.818-3.847-3.127-5.387-4.81-3.272-13.42-3.753-19.24-1.01-3.511,1.635-5.195,4.04-4.906,6.445C-35.659,588.933-33.975,586.913-30.945,585.473Z" fill="#78b5eb" opacity="0.43" style="isolation: isolate"/>
                <path id="Path_420" data-name="Path 420" d="M-28.25,593.021a3.664,3.664,0,0,1-1.492-2.5l2.694-.144a2.748,2.748,0,0,0,1.25,1.972,2.321,2.321,0,0,0,2.454.289c1.731-.866-2.454-3.608.625-5.146a6.547,6.547,0,0,1,5.531.047l1.732-.866,1.539,1.01-1.732.866a2.415,2.415,0,0,1,.963,2.26l-2.6-.047a1.716,1.716,0,0,0-.866-1.588,2.064,2.064,0,0,0-2.26-.24c-1.635.818,2.694,3.511-.578,5.1a6.625,6.625,0,0,1-5.723-.049l-1.78.866-1.539-1.01Z" fill="#ffb8b8"/>
              </g>
            </g>
          </g>
          <line id="Line_300" data-name="Line 300" x2="0.048" y2="4.714" transform="translate(-21.95 602.642)" fill="none" stroke="#e02f2b" stroke-linecap="round" stroke-miterlimit="10" stroke-width="0.5"/>
          <line id="Line_301" data-name="Line 301" y2="4.57" transform="translate(-16.899 602.305)" fill="none" stroke="#e02f2b" stroke-linecap="round" stroke-miterlimit="10" stroke-width="0.5"/>
          <line id="Line_302" data-name="Line 302" x2="0.048" y2="4.57" transform="translate(-12.137 601.151)" fill="none" stroke="#e02f2b" stroke-linecap="round" stroke-miterlimit="10" stroke-width="0.5"/>
          <line id="Line_303" data-name="Line 303" x2="0.048" y2="4.233" transform="translate(-7.856 599.178)" fill="none" stroke="#e02f2b" stroke-linecap="round" stroke-miterlimit="10" stroke-width="0.5"/>
          <line id="Line_304" data-name="Line 304" x1="0.096" y2="4.281" transform="translate(-4.441 596.244)" fill="none" stroke="#e02f2b" stroke-linecap="round" stroke-miterlimit="10" stroke-width="0.5"/>
          <line id="Line_305" data-name="Line 305" y2="4.57" transform="translate(-27.193 602.305)" fill="none" stroke="#e02f2b" stroke-linecap="round" stroke-miterlimit="10" stroke-width="0.5"/>
          <line id="Line_306" data-name="Line 306" x1="0.048" y2="4.57" transform="translate(-32.003 601.151)" fill="none" stroke="#e02f2b" stroke-linecap="round" stroke-miterlimit="10" stroke-width="0.5"/>
          <line id="Line_307" data-name="Line 307" x1="0.048" y2="4.233" transform="translate(-36.284 599.178)" fill="none" stroke="#e02f2b" stroke-linecap="round" stroke-miterlimit="10" stroke-width="0.5"/>
          <line id="Line_308" data-name="Line 308" x2="0.096" y2="4.281" transform="translate(-39.747 596.244)" fill="none" stroke="#e02f2b" stroke-linecap="round" stroke-miterlimit="10" stroke-width="0.5"/>
        </g>
        <g id="Group_5579" data-name="Group 5579">
          <g id="Group_5578" data-name="Group 5578">
            <g id="Group_5577" data-name="Group 5577">
              <g id="Group_5576" data-name="Group 5576">
                <path id="Path_421" data-name="Path 421" d="M-2.71,583.257a34.046,34.046,0,0,1-.481,6.926c-.625,2.454-2.79,4.81-6.4,6.542-7.986,3.8-20.058,3.175-26.985-1.395-3.222-2.117-5-4.282-5-6.975-.1-1.443-.144-5.532-.144-5.532.24-.866,1.3.049,1.924-.77a12.81,12.81,0,0,1,5.435-4.328c7.985-3.8,20.058-3.175,26.984,1.4C-4.49,581-2.9,580.945-2.71,583.257Z" fill="#ffb8b8"/>
                <ellipse id="Ellipse_143" data-name="Ellipse 143" cx="19.529" cy="11.063" rx="19.529" ry="11.063" transform="translate(-41.719 572.194)" fill="#e02f2b"/>
                <ellipse id="Ellipse_144" data-name="Ellipse 144" cx="19.529" cy="11.063" rx="19.529" ry="11.063" transform="translate(-41.719 571.617)" fill="#ffd7d7"/>
                <ellipse id="Ellipse_145" data-name="Ellipse 145" cx="13.661" cy="7.744" rx="13.661" ry="7.744" transform="translate(-35.899 574.647)" fill="none" stroke="#e02f2b" stroke-miterlimit="10" stroke-width="0.283"/>
                <path id="Path_422" data-name="Path 422" d="M-30.945,577.389c5.82-2.741,14.43-2.26,19.24,1.01a6.5,6.5,0,0,1,3.127,4.474c.192-1.876-.818-3.849-3.127-5.388-4.81-3.271-13.42-3.751-19.24-1.01-3.511,1.635-5.195,4.042-4.906,6.446C-35.659,580.8-33.975,578.784-30.945,577.389Z" fill="#78b5eb" opacity="0.43" style="isolation: isolate"/>
                <path id="Path_423" data-name="Path 423" d="M-28.25,584.892a3.664,3.664,0,0,1-1.492-2.5l2.694-.144a2.75,2.75,0,0,0,1.25,1.972,2.321,2.321,0,0,0,2.454.289c1.731-.866-2.454-3.608.625-5.146a6.547,6.547,0,0,1,5.531.047l1.732-.866,1.539,1.01-1.732.866a2.415,2.415,0,0,1,.963,2.26l-2.6-.047a1.716,1.716,0,0,0-.866-1.588,2.066,2.066,0,0,0-2.26-.24c-1.635.818,2.694,3.512-.578,5.1a6.625,6.625,0,0,1-5.723-.049l-1.78.867-1.539-1.01Z" fill="#ffb8b8"/>
              </g>
            </g>
          </g>
          <line id="Line_309" data-name="Line 309" x2="0.048" y2="4.714" transform="translate(-21.95 594.513)" fill="none" stroke="#e02f2b" stroke-linecap="round" stroke-miterlimit="10" stroke-width="0.5"/>
          <line id="Line_310" data-name="Line 310" y2="4.57" transform="translate(-16.899 594.176)" fill="none" stroke="#e02f2b" stroke-linecap="round" stroke-miterlimit="10" stroke-width="0.5"/>
          <line id="Line_311" data-name="Line 311" x2="0.048" y2="4.57" transform="translate(-12.137 593.022)" fill="none" stroke="#e02f2b" stroke-linecap="round" stroke-miterlimit="10" stroke-width="0.5"/>
          <line id="Line_312" data-name="Line 312" x2="0.048" y2="4.233" transform="translate(-7.856 591.05)" fill="none" stroke="#e02f2b" stroke-linecap="round" stroke-miterlimit="10" stroke-width="0.5"/>
          <line id="Line_313" data-name="Line 313" x1="0.096" y2="4.281" transform="translate(-4.441 588.115)" fill="none" stroke="#e02f2b" stroke-linecap="round" stroke-miterlimit="10" stroke-width="0.5"/>
          <line id="Line_314" data-name="Line 314" y2="4.57" transform="translate(-27.193 594.176)" fill="none" stroke="#e02f2b" stroke-linecap="round" stroke-miterlimit="10" stroke-width="0.5"/>
          <line id="Line_315" data-name="Line 315" x1="0.048" y2="4.57" transform="translate(-32.003 593.022)" fill="none" stroke="#e02f2b" stroke-linecap="round" stroke-miterlimit="10" stroke-width="0.5"/>
          <line id="Line_316" data-name="Line 316" x1="0.048" y2="4.233" transform="translate(-36.284 591.05)" fill="none" stroke="#e02f2b" stroke-linecap="round" stroke-miterlimit="10" stroke-width="0.5"/>
          <line id="Line_317" data-name="Line 317" x2="0.096" y2="4.281" transform="translate(-39.747 588.115)" fill="none" stroke="#e02f2b" stroke-linecap="round" stroke-miterlimit="10" stroke-width="0.5"/>
        </g>
        <g id="Group_5583" data-name="Group 5583">
          <g id="Group_5582" data-name="Group 5582">
            <g id="Group_5581" data-name="Group 5581">
              <g id="Group_5580" data-name="Group 5580">
                <path id="Path_424" data-name="Path 424" d="M-2.71,575.129a34.046,34.046,0,0,1-.481,6.926c-.625,2.454-2.79,4.81-6.4,6.542-7.986,3.8-20.058,3.175-26.985-1.395-3.222-2.117-5-4.281-5-6.975-.1-1.443-.144-5.532-.144-5.532.24-.866,1.3.049,1.924-.77a12.809,12.809,0,0,1,5.435-4.328c7.985-3.8,20.058-3.175,26.984,1.4C-4.49,572.868-2.9,572.819-2.71,575.129Z" fill="#ffb8b8"/>
                <ellipse id="Ellipse_146" data-name="Ellipse 146" cx="19.529" cy="11.063" rx="19.529" ry="11.063" transform="translate(-41.719 564.065)" fill="#e02f2b"/>
                <ellipse id="Ellipse_147" data-name="Ellipse 147" cx="19.529" cy="11.063" rx="19.529" ry="11.063" transform="translate(-41.719 563.488)" fill="#ffd7d7"/>
                <ellipse id="Ellipse_148" data-name="Ellipse 148" cx="13.661" cy="7.744" rx="13.661" ry="7.744" transform="translate(-35.899 566.518)" fill="none" stroke="#e02f2b" stroke-linecap="round" stroke-miterlimit="10" stroke-width="0.5"/>
                <path id="Path_425" data-name="Path 425" d="M-30.753,569.549c5.677-2.741,14.094-2.261,18.808,1.01a6.341,6.341,0,0,1,3.03,4.474c.193-1.876-.77-3.848-3.03-5.388-4.714-3.271-13.131-3.751-18.808-1.01-3.415,1.635-5.05,4.04-4.81,6.445C-35.37,572.966-33.735,570.944-30.753,569.549Z" fill="#ffb8b8"/>
                <path id="Path_426" data-name="Path 426" d="M-28.694,575.232a2.752,2.752,0,0,1-1.121-1.878l2.023-.107a2.064,2.064,0,0,0,.939,1.481,1.747,1.747,0,0,0,1.843.217c1.3-.65-1.843-2.71.469-3.866a4.915,4.915,0,0,1,4.154.037l1.3-.651,1.156.759-1.3.65a1.814,1.814,0,0,1,.723,1.7l-1.953-.035a1.289,1.289,0,0,0-.65-1.193,1.551,1.551,0,0,0-1.7-.18c-1.228.614,2.023,2.637-.434,3.83a4.976,4.976,0,0,1-4.3-.037l-1.337.65-1.156-.759Z" transform="translate(2.006 1.018)" fill="#e02f2b"/>
              </g>
            </g>
          </g>
          <line id="Line_318" data-name="Line 318" x2="0.048" y2="4.714" transform="translate(-21.95 586.384)" fill="none" stroke="#e02f2b" stroke-linecap="round" stroke-miterlimit="10" stroke-width="0.5"/>
          <line id="Line_319" data-name="Line 319" y2="4.57" transform="translate(-16.899 586.047)" fill="none" stroke="#e02f2b" stroke-linecap="round" stroke-miterlimit="10" stroke-width="0.5"/>
          <line id="Line_320" data-name="Line 320" x2="0.048" y2="4.57" transform="translate(-12.137 584.893)" fill="none" stroke="#e02f2b" stroke-linecap="round" stroke-miterlimit="10" stroke-width="0.5"/>
          <line id="Line_321" data-name="Line 321" x2="0.048" y2="4.185" transform="translate(-7.856 582.969)" fill="none" stroke="#e02f2b" stroke-linecap="round" stroke-miterlimit="10" stroke-width="0.5"/>
          <line id="Line_322" data-name="Line 322" x1="0.096" y2="4.281" transform="translate(-4.441 579.986)" fill="none" stroke="#e02f2b" stroke-linecap="round" stroke-miterlimit="10" stroke-width="0.5"/>
          <line id="Line_323" data-name="Line 323" y2="4.57" transform="translate(-27.193 586.047)" fill="none" stroke="#e02f2b" stroke-linecap="round" stroke-miterlimit="10" stroke-width="0.5"/>
          <line id="Line_324" data-name="Line 324" x1="0.048" y2="4.57" transform="translate(-32.003 584.893)" fill="none" stroke="#e02f2b" stroke-linecap="round" stroke-miterlimit="10" stroke-width="0.5"/>
          <line id="Line_325" data-name="Line 325" x1="0.048" y2="4.185" transform="translate(-36.284 582.969)" fill="none" stroke="#e02f2b" stroke-linecap="round" stroke-miterlimit="10" stroke-width="0.5"/>
          <line id="Line_326" data-name="Line 326" x2="0.096" y2="4.281" transform="translate(-39.747 579.986)" fill="none" stroke="#e02f2b" stroke-linecap="round" stroke-miterlimit="10" stroke-width="0.5"/>
        </g>
      </g>
      <g id="Group_5588" data-name="Group 5588">
        <g id="Group_5587" data-name="Group 5587">
          <ellipse id="Ellipse_149" data-name="Ellipse 149" cx="19.529" cy="11.063" rx="19.529" ry="11.063" transform="translate(-69.184 603.46)" stroke="rgba(0,0,0,0)" stroke-width="1" fill="url(#linear-gradient-4)"/>
          <g id="Group_5586" data-name="Group 5586">
            <g id="Group_5585" data-name="Group 5585">
              <path id="Path_427" data-name="Path 427" d="M-36.668,610.531a34.046,34.046,0,0,1-.481,6.926c-.625,2.454-2.79,4.81-6.4,6.542-7.985,3.8-20.058,3.175-26.984-1.4-3.223-2.117-5-4.282-5-6.975-.1-1.443-.143-5.532-.143-5.532.24-.866,1.3.049,1.923-.77A12.825,12.825,0,0,1-68.317,605c7.985-3.8,20.057-3.175,26.984,1.395C-38.448,608.27-36.86,608.221-36.668,610.531Z" fill="#ffb8b8"/>
              <ellipse id="Ellipse_150" data-name="Ellipse 150" cx="19.529" cy="11.063" rx="19.529" ry="11.063" transform="translate(-75.678 599.467)" fill="#e02f2b"/>
              <ellipse id="Ellipse_151" data-name="Ellipse 151" cx="19.529" cy="11.063" rx="19.529" ry="11.063" transform="translate(-75.678 598.89)" fill="#ffd7d7"/>
              <ellipse id="Ellipse_152" data-name="Ellipse 152" cx="13.661" cy="7.744" rx="13.661" ry="7.744" transform="translate(-69.858 601.92)" fill="none" stroke="#e02f2b" stroke-linecap="round" stroke-miterlimit="10" stroke-width="0.5"/>
              <path id="Path_428" data-name="Path 428" d="M-64.663,605.047c5.676-2.741,14.094-2.26,18.759,1.01a6.341,6.341,0,0,1,3.03,4.474c.192-1.876-.77-3.848-3.03-5.388-4.714-3.271-13.084-3.751-18.759-1.01-3.415,1.635-5.05,4.04-4.81,6.446C-69.233,608.462-67.6,606.442-64.663,605.047Z" fill="#ffb8b8"/>
              <path id="Path_429" data-name="Path 429" d="M-62.492,611.161a3.088,3.088,0,0,1-1.255-2.1l2.268-.121a2.313,2.313,0,0,0,1.052,1.66,1.954,1.954,0,0,0,2.066.243c1.457-.729-2.066-3.037.526-4.332a5.512,5.512,0,0,1,4.656.04l1.458-.729,1.295.85-1.457.729a2.03,2.03,0,0,1,.809,1.9l-2.189-.04a1.448,1.448,0,0,0-.729-1.337,1.738,1.738,0,0,0-1.9-.2c-1.378.689,2.267,2.956-.487,4.293a5.579,5.579,0,0,1-4.818-.041l-1.5.73-1.3-.85Z" transform="translate(1.275 0.647)" fill="#e02f2b"/>
            </g>
          </g>
        </g>
        <line id="Line_327" data-name="Line 327" x2="0.048" y2="4.714" transform="translate(-55.861 621.786)" fill="none" stroke="#e02f2b" stroke-linecap="round" stroke-miterlimit="10" stroke-width="0.5"/>
        <line id="Line_328" data-name="Line 328" x2="0.048" y2="4.57" transform="translate(-50.858 621.449)" fill="none" stroke="#e02f2b" stroke-linecap="round" stroke-miterlimit="10" stroke-width="0.5"/>
        <line id="Line_329" data-name="Line 329" y2="4.57" transform="translate(-46.048 620.295)" fill="none" stroke="#e02f2b" stroke-linecap="round" stroke-miterlimit="10" stroke-width="0.5"/>
        <line id="Line_330" data-name="Line 330" y2="4.233" transform="translate(-41.767 618.323)" fill="none" stroke="#e02f2b" stroke-linecap="round" stroke-miterlimit="10" stroke-width="0.5"/>
        <line id="Line_331" data-name="Line 331" x1="0.096" y2="4.281" transform="translate(-38.352 615.388)" fill="none" stroke="#e02f2b" stroke-linecap="round" stroke-miterlimit="10" stroke-width="0.5"/>
        <line id="Line_332" data-name="Line 332" y2="4.57" transform="translate(-61.152 621.449)" fill="none" stroke="#e02f2b" stroke-linecap="round" stroke-miterlimit="10" stroke-width="0.5"/>
        <line id="Line_333" data-name="Line 333" y2="4.57" transform="translate(-65.914 620.295)" fill="none" stroke="#e02f2b" stroke-linecap="round" stroke-miterlimit="10" stroke-width="0.5"/>
        <line id="Line_334" data-name="Line 334" x1="0.048" y2="4.233" transform="translate(-70.243 618.323)" fill="none" stroke="#e02f2b" stroke-linecap="round" stroke-miterlimit="10" stroke-width="0.5"/>
        <line id="Line_335" data-name="Line 335" x2="0.096" y2="4.281" transform="translate(-73.706 615.388)" fill="none" stroke="#e02f2b" stroke-linecap="round" stroke-miterlimit="10" stroke-width="0.5"/>
      </g>
      <g id="Group_5589" data-name="Group 5589">
        <line id="Line_336" data-name="Line 336" y2="24.531" transform="translate(-108.05 455.44)" fill="none" stroke="#203543" stroke-linecap="round" stroke-linejoin="round" stroke-width="2"/>
        <ellipse id="Ellipse_153" data-name="Ellipse 153" cx="26.091" cy="41.204" rx="26.091" ry="41.204" transform="matrix(0.848, -0.53, 0.53, 0.848, -152.012, 395.646)" fill="#fff" stroke="#203543" stroke-linecap="round" stroke-linejoin="round" stroke-width="2"/>
        <path id="Path_430" data-name="Path 430" d="M-126.568,394.176c6.445.673,15.729-1.107,17.989-1.539a1.2,1.2,0,0,1,1.01.481c2.213,2.645,11.3,13.324,17.942,18.423a1.664,1.664,0,0,1,.673,1.539c-.817,5.627-5.916,35.017-19.144,28.812-13.275-6.253-18.374-40.645-19.144-46.85C-127.289,394.512-127.006,394.127-126.568,394.176Z" fill="none" stroke="#203543" stroke-linecap="round" stroke-linejoin="round" stroke-width="2"/>
        <path id="Path_431" data-name="Path 431" d="M-120.988,400.812c4.425.385,10.63-.721,12.458-1.106a1.2,1.2,0,0,1,1.01.481c1.78,2.117,7.84,9.188,12.41,12.747a1.674,1.674,0,0,1,.673,1.491c-.721,4.57-4.328,24.579-13.564,20.25-9.282-4.328-12.891-27.946-13.612-33.044a.613.613,0,0,1,.366-.784A.617.617,0,0,1-120.988,400.812Z" fill="#ee4036"/>
        <path id="Path_410-4" data-name="Path 410" d="M-34.5,364.113l4.049,7.947,4.775-5.968" transform="translate(-77.656 50.111)" fill="none" stroke="#fff" stroke-linecap="round" stroke-linejoin="round" stroke-width="3"/>
      </g>
      <g id="Group_5591" data-name="Group 5591">
        <ellipse id="Ellipse_154" data-name="Ellipse 154" cx="9.765" cy="6.493" rx="9.765" ry="6.493" transform="translate(-122.016 605.804) rotate(-67.358)" fill="#fff"/>
        <g id="Group_5590" data-name="Group 5590">
          <path id="Path_432" data-name="Path 432" d="M-111.9,594.993a.047.047,0,0,0,.049-.045v0c1.587-.963,2.694,0,2.5,2.116a8.3,8.3,0,0,1-3.175,5.531.049.049,0,0,0-.049.047v0c-1.587.963-2.693,0-2.5-2.069A7.936,7.936,0,0,1-111.9,594.993Z" fill="#203543"/>
          <path id="Path_433" data-name="Path 433" d="M-110.936,585.422c5.387-3.271,9.139-.1,8.465,7.119,0,.192-.049.336-.049.529a27.014,27.014,0,0,1-1.4,5.58c-1.924,5.242-5.531,10.292-9.331,12.7-.049.049-.144.1-.193.145-3.7,2.26-6.686,1.443-7.936-1.731a11.435,11.435,0,0,1-.625-4.329,9.332,9.332,0,0,1,.1-1.106c.674-7.119,5.484-15.44,10.774-18.808A.364.364,0,0,0-110.936,585.422Zm-1.924,21.068c3.175-2.02,6.06-7.023,6.494-11.256.432-4.328-1.877-6.2-5.1-4.281-.049.049-.1.049-.144.1-3.175,2.021-6.06,7.023-6.445,11.256-.433,4.329,1.876,6.2,5.1,4.281,0-.049.047-.049.1-.1" fill="#203543"/>
        </g>
      </g>
      <g id="Group_5593" data-name="Group 5593">
        <path id="Path_434" data-name="Path 434" d="M-42.825,560.506c-1.828,5.05-6.109,8.369-9.524,7.359-3.464-1.01-4.763-5.916-2.934-11.015,1.827-5.05,6.109-8.37,9.524-7.359C-42.3,550.5-41,555.407-42.825,560.506Z" fill="#fff"/>
        <g id="Group_5592" data-name="Group 5592">
          <path id="Path_435" data-name="Path 435" d="M-48.693,554.349a.047.047,0,0,0,.047-.047v0c1.588-.961,2.694,0,2.5,2.117a8.312,8.312,0,0,1-3.175,5.532.049.049,0,0,0-.049.047v0c-1.587.961-2.694,0-2.5-2.069A8.026,8.026,0,0,1-48.693,554.349Z" fill="#203543"/>
          <path id="Path_436" data-name="Path 436" d="M-47.732,544.777c5.388-3.271,9.139-.1,8.467,7.119,0,.193-.049.337-.049.529a27.012,27.012,0,0,1-1.4,5.58c-1.924,5.243-5.532,10.294-9.332,12.7-.047.047-.143.1-.192.145-3.7,2.26-6.686,1.442-7.936-1.732a11.431,11.431,0,0,1-.626-4.328,9.348,9.348,0,0,1,.1-1.107c.673-7.119,5.483-15.44,10.774-18.806C-47.876,544.874-47.827,544.825-47.732,544.777Zm-1.924,21.117c3.175-2.02,6.062-7.023,6.494-11.255.433-4.329-1.876-6.206-5.1-4.282-.047.049-.1.049-.143.1-3.175,2.02-6.062,7.022-6.446,11.255-.432,4.329,1.877,6.2,5.1,4.281a.1.1,0,0,1,.1-.1" fill="#203543"/>
        </g>
      </g>
      <path id="Path_437" data-name="Path 437" d="M-171.109,578.014a1.474,1.474,0,0,0,1.97-.682,1.477,1.477,0,0,0,.146-.713l-.673-8.754a33.579,33.579,0,0,0-3.272,6.83,2.862,2.862,0,0,0,1.828,3.319Z" fill="#fff"/>
      <path id="Path_438" data-name="Path 438" d="M-140.229,589.131l10.918-9.092a1.763,1.763,0,0,1,2.446.477,1.765,1.765,0,0,1,.3,1.111c-.289,2.645-1.106,5.965-3.368,8.081-3.751,3.511-7.455,3.415-9.908,2.02a1.619,1.619,0,0,1-.692-2.182A1.63,1.63,0,0,1-140.229,589.131Z" fill="#fff"/>
      <line id="Line_337" data-name="Line 337" x2="20.154" y2="8.899" transform="translate(-166.347 579.362)" fill="none" stroke="#152936" stroke-linecap="round" stroke-linejoin="round" stroke-width="2"/>
      <path id="Path_439" data-name="Path 439" d="M-91.07,561.228a13.518,13.518,0,0,1,3.03,1.972c2.4,2.4,3.126,8.61-3.03,7.168a29.84,29.84,0,0,1-5.531-1.877c-2.934-1.346-5.052-3.03-5.243-4.761C-102.037,561.42-96.458,558.774-91.07,561.228Z" fill="#ee4036"/>
      <path id="Path_440" data-name="Path 440" d="M40.383,333.087l-1.3-.577c-.866-6.686-5.532-13.564-11.112-16.018l-36.888-16.3c-5.58-2.454-10.245.288-11.111,6.2l-1.3-.578c-6.2-2.741-11.255.963-11.255,8.274h0c0,7.264,5.05,15.489,11.255,18.23l61.665,27.273c6.2,2.742,11.255-.961,11.255-8.272h0C51.6,344.006,46.545,335.83,40.383,333.087Z" stroke="rgba(0,0,0,0)" stroke-width="1" fill="url(#linear-gradient)"/>
      <g id="Group_5600" data-name="Group 5600">
        <path id="Path_441" data-name="Path 441" d="M7.632,496.918s-3.655,25.2,11.975,24.92-4.185-24.915-4.185-24.915Z" fill="#bf1d1d"/>
        <path id="Path_442" data-name="Path 442" d="M55.351,606.49c-5.1-2.742-13.661-2.983-19.433-.529a7.3,7.3,0,0,0-3.368-3.223c-5.242-2.837-14.189-2.982-19.914-.288s-6.109,7.166-.866,10c5.1,2.741,13.66,2.982,19.433.529A7.308,7.308,0,0,0,34.57,616.2c5.243,2.838,14.191,2.983,19.914.289C60.251,613.8,60.64,609.327,55.351,606.49Z" fill="url(#linear-gradient-6)"/>
        <path id="Path_443" data-name="Path 443" d="M37.649,485.325s4.185,1.155,4.185,3.319a21.844,21.844,0,0,1-.432,4.136L27.349,489.8l1.443-5.82Z" fill="#e02f2b"/>
        <path id="Path_444" data-name="Path 444" d="M15.569,603.174l7.793-5.339a7.239,7.239,0,0,1,4.185,0c.721.193.866-.336.77.336l.673,2.887c.674,1.923-.866,3.078-3.03,3.751L18.5,606.925a5.884,5.884,0,0,1-4.81-.625l-.336-.24C12.25,605.24,13.933,604.086,15.569,603.174Z" fill="#152936"/>
        <path id="Path_445" data-name="Path 445" d="M28.315,598.746c-.144,2.212-5.532,1.924-5.388-.289l.433-7.215,5.387.289Z" fill="#f8e8ea"/>
        <path id="Path_446" data-name="Path 446" d="M29.182,596a5.028,5.028,0,0,1-6.783-.192s-3.8-44.637-2.549-67.534l17.028-5.291c-2.116,14.045-6.781,37.133-6.781,37.133C35.05,571.664,30.577,585.951,29.182,596Z" fill="#203543"/>
        <path id="Path_447" data-name="Path 447" d="M36.877,522.939l-4.761,1.492c-1.3,8.321-3.368,19.191-4.81,26.744a40.582,40.582,0,0,0,0,14.863c1.78,10.245-1.492,21.549-2.694,29.918a11.521,11.521,0,0,1-1.01.625,4.844,4.844,0,0,0,5.531-.625c1.25-8.9,4.907-21.213,2.261-31.938a22.5,22.5,0,0,1-.143-9.813C32.788,546.461,35.435,532.56,36.877,522.939Z" fill="#152936"/>
        <path id="Path_448" data-name="Path 448" d="M47.507,604.277c.24,2.213-5.146,2.79-5.387.578l-.721-7.168,5.387-.577Z" fill="#f8e8ea"/>
        <path id="Path_449" data-name="Path 449" d="M47.941,601.583c-2.309,1.877-4.57,2.213-6.734.77,0,0-1.924-14.815-4.954-30.591-2.356-12.218-5.82-24.483-6.638-34.2l15.826-9.235c-.144,8.658.481,27.658.817,35.834a12.88,12.88,0,0,0,1.4,5.484C51.211,577.1,47.941,601.583,47.941,601.583Z" fill="#203543"/>
        <path id="Path_450" data-name="Path 450" d="M18.5,529.338a277.049,277.049,0,0,0,.144-29.149c.914-13.564,6.4-18.23,14.766-14.527l3.464,1.2c9.957,6.253,15.2,6.349,12.6,17.172l-2.453,25.877C46.16,542.228,16.867,543.767,18.5,529.338Z" fill="#e02f2b"/>
        <path id="Path_451" data-name="Path 451" d="M49.48,503.984l-2.454,25.878c-.481,7.166-10.679,10.726-18.759,9.524C37.84,534.627,44.429,521.5,49.48,503.984Z" fill="#bf1d1d"/>
        <g id="Group_5595" data-name="Group 5595">
          <g id="Group_5594" data-name="Group 5594">
            <path id="Path_452" data-name="Path 452" d="M41.014,489.269s.288,3.751-5.388,6.445a11.155,11.155,0,0,0-5.388,6.158c-.481,1.3-1.2.577-1.25-.818a36.114,36.114,0,0,0-.673-7.408c-.867-4.425,1.491-10.63,1.731-10.677S41.014,489.269,41.014,489.269Z" fill="#fff"/>
          </g>
        </g>
        <path id="Path_453" data-name="Path 453" d="M33.8,485.854s-5.291,1.2-4.521,6.156l-.385,5.773s-3.464-6.879-1.059-12.843C30.191,479.024,33.8,485.854,33.8,485.854Z" fill="#e02f2b"/>
        <path id="Path_454" data-name="Path 454" d="M31.634,485.95a6.761,6.761,0,0,0,1.395,1.924c.578.336,9.188-2.645,8.947-9.524-.144-4.377-8.465-3.992-8.465-3.992Z" fill="#f8bb26"/>
        <path id="Path_455" data-name="Path 455" d="M34.616,492.492l-.433.047a2.574,2.574,0,0,1-2.741-2.356l-.577-7.937a2.573,2.573,0,0,1,2.356-2.741l.433-.049a2.575,2.575,0,0,1,2.741,2.358l1.684,7.551C38.176,490.758,36.06,492.395,34.616,492.492Z" fill="#f8e8ea"/>
        <path id="Path_456" data-name="Path 456" d="M31.2,486.528a7,7,0,0,0,5.82-2.6s-2.6,4.714-5.676,4.81Z" fill="#dacdd0"/>
        <path id="Path_457" data-name="Path 457" d="M38.655,485.614s3.271,4.761-3.655,7.744c0,0-2.79,2.452-3.079,5.339,0,0,2.358-1.588,3.7-2.4C37.07,495.474,47.123,490.28,38.655,485.614Z" fill="#e02f2b"/>
        <path id="Path_458" data-name="Path 458" d="M33.558,483.882c-1.924,3.127-4.714,3.368-6.252.578s-1.2-7.648.721-10.774,4.714-3.368,6.253-.578C35.82,475.945,35.482,480.755,33.558,483.882Z" fill="#f8e8ea"/>
        <path id="Path_459" data-name="Path 459" d="M37.455,483.834c-1.924,3.126-8.178,4.136-9.717,1.346-1.539-2.837,1.059-8.465,2.983-11.591s4.714-3.368,6.252-.578S39.378,480.659,37.455,483.834Z" fill="#f8e8ea"/>
        <path id="Path_460" data-name="Path 460" d="M35.05,474.886s-1.973,6.542,3.03,9c0,0,6.59-2.356,3.366-9.571-2.837-6.349-9.813-3.175-9.813-3.175Z" fill="#f8bb26"/>
        <path id="Path_461" data-name="Path 461" d="M26.489,478.014A6.4,6.4,0,0,1,31.4,474.7l-2.452-2.116C28.989,472.579,26.054,472.722,26.489,478.014Z" fill="#f8bb26"/>
        <path id="Path_462" data-name="Path 462" d="M37.07,479.311c-.867-1.78-3.368-2.212-7.119-1.587a2.87,2.87,0,0,1-1.684-.144c-2.5-1.01-2.309-4.329-2.309-4.329-.192-2.26,1.443-2.982,3.7-3.175l5.916-.432c3.368-.289,5.965,2.934,6.158,5.195l.1.385C41.975,477.533,39.377,479.168,37.07,479.311Z" fill="#f8bb26"/>
        <path id="Path_463" data-name="Path 463" d="M38.705,483.789a1.609,1.609,0,1,1-.53-2.213h0a1.6,1.6,0,0,1,.543,2.19Z" fill="#f8e8ea"/>
        <path id="Path_464" data-name="Path 464" d="M42.12,604.566l.385,4.57a27.884,27.884,0,0,0,.817,3.9A3.433,3.433,0,0,0,46.16,615.1c1.4.1,4.233-2.4,3.223-5.435-.867-2.694-1.828-5.484-1.828-5.484C45.535,605,43.707,605.336,42.12,604.566Z" fill="#152936"/>
        <g id="Group_5597" data-name="Group 5597">
          <g id="Group_5596" data-name="Group 5596">
            <path id="Path_465" data-name="Path 465" d="M29.518,484.985h0a2.8,2.8,0,0,1-1.3-2.549l2.549,1.01C30.768,484.555,30.192,485.229,29.518,484.985Z" fill="#fff"/>
          </g>
        </g>
        <g id="Group_5599" data-name="Group 5599">
          <g id="Group_5598" data-name="Group 5598">
            <path id="Path_466" data-name="Path 466" d="M50.1,550.165c-.049-.049-.049-.1-.1-.145h0l-7.263-14c-2.02-3.9-6.494-5.676-9.957-3.992s-4.617,6.253-2.6,10.149l7.311,14h0c0,.049.049.1.049.144,2.02,3.9,6.494,5.677,9.956,3.993S52.125,554.109,50.1,550.165Z" fill="#e02f2b"/>
            <path id="Path_467" data-name="Path 467" d="M33.9,549.78,1.187,486.909l6.449-4.9,36.075,68.928Z" fill="#203543"/>
            <path id="Path_468" data-name="Path 468" d="M7.632,482.005c3.366-.962.721-3.56,5.291-3.175l31.891,60.944c1.491,5.964,1.4,10.534-1.059,11.159Z" fill="#152936"/>
            <path id="Path_469" data-name="Path 469" d="M46.737,543.479c-.047-.049-.047-.1-.1-.144h0l-3.319-6.253c2.4,5.1-9.091,12.7-13.227,5.531a.175.175,0,0,1-.049-.143h0l3.751,7.166h0c0,.049.049.1.049.144C37.791,556.946,50.682,550.694,46.737,543.479Z" stroke="rgba(0,0,0,0)" stroke-width="1" fill="url(#linear-gradient)"/>
            <path id="Path_470" data-name="Path 470" d="M12.683,478.255l-15.537-11.3L.514,486C4.458,490.088,15.088,482.246,12.683,478.255Z" stroke="rgba(0,0,0,0)" stroke-width="1" fill="url(#linear-gradient)"/>
            <path id="Path_471" data-name="Path 471" d="M-3.335,465.892,3.977,471.9s.77.866-.674,1.972-.24,1.684-1.973,2.645c-1.78,1.011-2.356.674-2.356.674Z" fill="#203543"/>
          </g>
        </g>
        <path id="Path_472" data-name="Path 472" d="M40.966,545.739h0a2.153,2.153,0,0,0,2.982-.529l2.309-3.368a2.151,2.151,0,0,0-.529-2.982h0a2.151,2.151,0,0,0-2.982.529l-2.309,3.367A2.146,2.146,0,0,0,40.966,545.739Z" fill="#dacdd0"/>
        <path id="Path_473" data-name="Path 473" d="M37.6,501.583s16.883,13.131,14.96,17.7-10.391,19-10.391,19l5.388,3.03s17.268-18.567,15.825-24c-1.78-6.83-14.863-23.04-14.863-23.04Z" fill="#e02f2b"/>
        <path id="Path_474" data-name="Path 474" d="M5.9,500.429h0a2.17,2.17,0,0,0-.721,2.934L7.3,506.827a2.169,2.169,0,0,0,2.934.721h0a2.169,2.169,0,0,0,.722-2.934L8.834,501.15A2.16,2.16,0,0,0,5.9,500.429Z" fill="#dacdd0"/>
      </g>
      <line id="Line_340" data-name="Line 340" x2="30" y2="14" transform="translate(-6.079 317.867)" fill="none" stroke="#203543" stroke-linecap="round" stroke-linejoin="round" stroke-width="3"/>
    </g>
  </g>
</svg>
